<!-- webOS wallpaper · Aurora (light) — flowing pastel ribbons -->
<svg xmlns="http://www.w3.org/2000/svg" width="2880" height="1800" viewBox="0 0 2880 1800" preserveAspectRatio="xMidYMid slice">
  <defs>
    <linearGradient id="bg" x1="0" y1="0" x2="2880" y2="1800" gradientUnits="userSpaceOnUse">
      <stop offset="0" stop-color="#f7f1ff"/>
      <stop offset="0.5" stop-color="#fbeef6"/>
      <stop offset="1" stop-color="#fff1e6"/>
    </linearGradient>
    <radialGradient id="blobA">
      <stop offset="0" stop-color="#d9dcff"/>
      <stop offset=".4" stop-color="#d9dcff" stop-opacity=".7"/>
      <stop offset=".72" stop-color="#d9dcff" stop-opacity=".22"/>
      <stop offset="1" stop-color="#d9dcff" stop-opacity="0"/>
    </radialGradient>
    <radialGradient id="blobB">
      <stop offset="0" stop-color="#ffd9cf"/>
      <stop offset=".4" stop-color="#ffd9cf" stop-opacity=".7"/>
      <stop offset=".72" stop-color="#ffd9cf" stop-opacity=".22"/>
      <stop offset="1" stop-color="#ffd9cf" stop-opacity="0"/>
    </radialGradient>
    <radialGradient id="blobC">
      <stop offset="0" stop-color="#ffe3f3"/>
      <stop offset=".4" stop-color="#ffe3f3" stop-opacity=".7"/>
      <stop offset=".72" stop-color="#ffe3f3" stop-opacity=".22"/>
      <stop offset="1" stop-color="#ffe3f3" stop-opacity="0"/>
    </radialGradient>
    <linearGradient id="r0" x1="0" y1="0" x2="2880" y2="-400" gradientUnits="userSpaceOnUse">
      <stop offset="0" stop-color="#c3d4ff"/>
      <stop offset="0.5" stop-color="#dcc8ff"/>
      <stop offset="1" stop-color="#ffd3ec"/>
    </linearGradient>
    <path id="p0" d="M-240 524.9C-210 523.1 -120 516.9 -60 514C0 511.2 60 509.1 120 507.7C180 506.3 240 505.9 300 505.6C360 505.4 420 506 480 506.1C540 506.1 600 506.8 660 505.9C720 505 780 504.2 840 500.8C900 497.5 960 493.3 1020 486C1080 478.7 1140 469.6 1200 457C1260 444.5 1320 429.2 1380 410.7C1440 392.1 1500 370.3 1560 345.9C1620 321.5 1680 293.6 1740 264.3C1800 235.1 1860 202.7 1920 170.5C1980 138.3 2040 103.7 2100 71.1C2160 38.5 2220 5 2280 -25.1C2340 -55.3 2400 -84.7 2460 -109.5C2520 -134.3 2580 -156.8 2640 -174C2700 -191.3 2760 -204.7 2820 -213C2880 -221.3 2970 -222.2 3000 -224.1L3000 345.9C2970 345.4 2880 343.4 2820 342.8C2760 342.2 2700 341.1 2640 342.2C2580 343.3 2520 344.8 2460 349.3C2400 353.8 2340 359.6 2280 369C2220 378.3 2160 390.1 2100 405.4C2040 420.7 1980 439.3 1920 460.9C1860 482.4 1800 507.7 1740 535C1680 562.3 1620 593.1 1560 624.6C1500 656.1 1440 690.5 1380 723.8C1320 757.1 1260 792.1 1200 824.4C1140 856.7 1080 889.2 1020 917.5C960 945.8 900 972.6 840 994.3C780 1016 720 1034.4 660 1047.6C600 1060.8 540 1069.5 480 1073.4C420 1077.3 360 1076 300 1071.1C240 1066.3 180 1056.2 120 1044.3C60 1032.4 0 1016 -60 1000C-120 983.9 -210 956.6 -240 947.9Z"/>
    <clipPath id="k0">
      <use href="#p0"/>
    </clipPath>
    <path id="t0" d="M-240 524.9C-210 523.1 -120 516.9 -60 514C0 511.2 60 509.1 120 507.7C180 506.3 240 505.9 300 505.6C360 505.4 420 506 480 506.1C540 506.1 600 506.8 660 505.9C720 505 780 504.2 840 500.8C900 497.5 960 493.3 1020 486C1080 478.7 1140 469.6 1200 457C1260 444.5 1320 429.2 1380 410.7C1440 392.1 1500 370.3 1560 345.9C1620 321.5 1680 293.6 1740 264.3C1800 235.1 1860 202.7 1920 170.5C1980 138.3 2040 103.7 2100 71.1C2160 38.5 2220 5 2280 -25.1C2340 -55.3 2400 -84.7 2460 -109.5C2520 -134.3 2580 -156.8 2640 -174C2700 -191.3 2760 -204.7 2820 -213C2880 -221.3 2970 -222.2 3000 -224.1"/>
    <path id="u0" d="M-240 947.9C-210 956.6 -120 983.9 -60 1000C0 1016 60 1032.4 120 1044.3C180 1056.2 240 1066.3 300 1071.1C360 1076 420 1077.3 480 1073.4C540 1069.5 600 1060.8 660 1047.6C720 1034.4 780 1016 840 994.3C900 972.6 960 945.8 1020 917.5C1080 889.2 1140 856.7 1200 824.4C1260 792.1 1320 757.1 1380 723.8C1440 690.5 1500 656.1 1560 624.6C1620 593.1 1680 562.3 1740 535C1800 507.7 1860 482.4 1920 460.9C1980 439.3 2040 420.7 2100 405.4C2160 390.1 2220 378.3 2280 369C2340 359.6 2400 353.8 2460 349.3C2520 344.8 2580 343.3 2640 342.2C2700 341.1 2760 342.2 2820 342.8C2880 343.4 2970 345.4 3000 345.9"/>
    <path id="m0" d="M-240 651.8C-210 653.2 -120 657 -60 659.8C0 662.6 60 666.1 120 668.7C180 671.3 240 674 300 675.3C360 676.6 420 677.4 480 676.3C540 675.1 600 673 660 668.4C720 663.9 780 657.7 840 648.9C900 640 960 629.1 1020 615.5C1080 601.9 1140 585.7 1200 567.3C1260 548.8 1320 527.6 1380 504.6C1440 481.6 1500 456 1560 429.5C1620 403 1680 374.2 1740 345.5C1800 316.9 1860 286.6 1920 257.6C1980 228.6 2040 198.8 2100 171.4C2160 144 2220 117 2280 93.1C2340 69.2 2400 46.8 2460 28.1C2520 9.4 2580 -6.7 2640 -19.1C2700 -31.5 2760 -40.6 2820 -46.3C2880 -51.9 2970 -51.9 3000 -53.1"/>
    <linearGradient id="r1" x1="0" y1="0" x2="2880" y2="-400" gradientUnits="userSpaceOnUse">
      <stop offset="0" stop-color="#ffcadf"/>
      <stop offset="0.5" stop-color="#ffc0b6"/>
      <stop offset="1" stop-color="#ffe0ae"/>
    </linearGradient>
    <path id="p1" d="M-240 892C-210 897.1 -120 912.8 -60 922.5C0 932.1 60 943.1 120 950C180 956.8 240 963.2 300 963.8C360 964.5 420 962.4 480 953.7C540 945 600 931.5 660 911.8C720 892.1 780 866.1 840 835.6C900 805.1 960 767.8 1020 728.9C1080 690 1140 645.2 1200 602.1C1260 559.1 1320 512.4 1380 470.8C1440 429.2 1500 387.1 1560 352.6C1620 318.2 1680 286.7 1740 264.1C1800 241.5 1860 225.1 1920 217.1C1980 209.1 2040 209.4 2100 216.1C2160 222.8 2220 238.4 2280 257.2C2340 275.9 2400 302.7 2460 328.7C2520 354.7 2580 386.1 2640 413.2C2700 440.3 2760 469.3 2820 491.3C2880 513.3 2970 536.2 3000 545.2L3000 749.4C2970 746.7 2880 737.7 2820 733.4C2760 729.1 2700 725.8 2640 723.6C2580 721.5 2520 720.6 2460 720.3C2400 720 2340 720.8 2280 721.9C2220 722.9 2160 724.6 2100 726.7C2040 728.9 1980 731.2 1920 734.8C1860 738.3 1800 742.1 1740 748.1C1680 754.1 1620 760.8 1560 770.8C1500 780.8 1440 792.6 1380 808.2C1320 823.8 1260 842.3 1200 864.6C1140 886.8 1080 912.9 1020 941.6C960 970.3 900 1003.2 840 1036.6C780 1070.1 720 1107.2 660 1142.3C600 1177.4 540 1214.6 480 1247.1C420 1279.6 360 1311.9 300 1337.4C240 1362.9 180 1385.4 120 1400.1C60 1414.9 0 1424.1 -60 1426C-120 1427.9 -210 1414.1 -240 1411.7Z"/>
    <clipPath id="k1">
      <use href="#p1"/>
    </clipPath>
    <path id="t1" d="M-240 892C-210 897.1 -120 912.8 -60 922.5C0 932.1 60 943.1 120 950C180 956.8 240 963.2 300 963.8C360 964.5 420 962.4 480 953.7C540 945 600 931.5 660 911.8C720 892.1 780 866.1 840 835.6C900 805.1 960 767.8 1020 728.9C1080 690 1140 645.2 1200 602.1C1260 559.1 1320 512.4 1380 470.8C1440 429.2 1500 387.1 1560 352.6C1620 318.2 1680 286.7 1740 264.1C1800 241.5 1860 225.1 1920 217.1C1980 209.1 2040 209.4 2100 216.1C2160 222.8 2220 238.4 2280 257.2C2340 275.9 2400 302.7 2460 328.7C2520 354.7 2580 386.1 2640 413.2C2700 440.3 2760 469.3 2820 491.3C2880 513.3 2970 536.2 3000 545.2"/>
    <path id="u1" d="M-240 1411.7C-210 1414.1 -120 1427.9 -60 1426C0 1424.1 60 1414.9 120 1400.1C180 1385.4 240 1362.9 300 1337.4C360 1311.9 420 1279.6 480 1247.1C540 1214.6 600 1177.4 660 1142.3C720 1107.2 780 1070.1 840 1036.6C900 1003.2 960 970.3 1020 941.6C1080 912.9 1140 886.8 1200 864.6C1260 842.3 1320 823.8 1380 808.2C1440 792.6 1500 780.8 1560 770.8C1620 760.8 1680 754.1 1740 748.1C1800 742.1 1860 738.3 1920 734.8C1980 731.2 2040 728.9 2100 726.7C2160 724.6 2220 722.9 2280 721.9C2340 720.8 2400 720 2460 720.3C2520 720.6 2580 721.5 2640 723.6C2700 725.8 2760 729.1 2820 733.4C2880 737.7 2970 746.7 3000 749.4"/>
    <path id="m1" d="M-240 1047.9C-210 1052.2 -120 1067.4 -60 1073.5C0 1079.7 60 1084.6 120 1085C180 1085.4 240 1083.1 300 1075.9C360 1068.7 420 1057.5 480 1041.7C540 1025.9 600 1005.3 660 981C720 956.7 780 927.3 840 895.9C900 864.5 960 828.5 1020 792.7C1080 756.9 1140 717.6 1200 680.9C1260 644.1 1320 605.8 1380 572C1440 538.2 1500 505.2 1560 478.1C1620 451 1680 426.9 1740 409.3C1800 391.7 1860 379.1 1920 372.4C1980 365.7 2040 365.2 2100 369.3C2160 373.3 2220 383.8 2280 396.6C2340 409.4 2400 427.9 2460 446.2C2520 464.5 2580 486.7 2640 506.3C2700 526 2760 547.3 2820 563.9C2880 580.6 2970 599.4 3000 606.5"/>
    <linearGradient id="r2" x1="0" y1="0" x2="2880" y2="-400" gradientUnits="userSpaceOnUse">
      <stop offset="0" stop-color="#b3e5ff"/>
      <stop offset="0.5" stop-color="#c3c2ff"/>
      <stop offset="1" stop-color="#f2bfff"/>
    </linearGradient>
    <path id="p2" d="M-240 1321.9C-210 1321.5 -120 1327.5 -60 1319.3C0 1311.1 60 1295.2 120 1272.5C180 1249.8 240 1218.5 300 1182.9C360 1147.4 420 1103.6 480 1059.2C540 1014.8 600 964 660 916.3C720 868.6 780 817.6 840 772.9C900 728.3 960 684.1 1020 648.6C1080 613.1 1140 581.7 1200 560C1260 538.3 1320 523.8 1380 518.2C1440 512.7 1500 516.3 1560 526.6C1620 536.9 1680 556.8 1740 580C1800 603.1 1860 634.7 1920 665.5C1980 696.3 2040 732.8 2100 764.8C2160 796.7 2220 830.8 2280 857.2C2340 883.6 2400 908.1 2460 923.2C2520 938.4 2580 947.9 2640 948C2700 948 2760 939.8 2820 923.5C2880 907.3 2970 862.7 3000 850.5L3000 1132.8C2970 1136.2 2880 1149.1 2820 1153.3C2760 1157.5 2700 1158.4 2640 1158C2580 1157.5 2520 1154.4 2460 1150.6C2400 1146.7 2340 1140.9 2280 1135.1C2220 1129.3 2160 1122.1 2100 1115.5C2040 1108.9 1980 1101.6 1920 1095.4C1860 1089.2 1800 1082.9 1740 1078.2C1680 1073.6 1620 1069.4 1560 1067.4C1500 1065.5 1440 1064.6 1380 1066.5C1320 1068.5 1260 1072.2 1200 1079.1C1140 1086 1080 1095.4 1020 1108.2C960 1120.9 900 1136.8 840 1155.6C780 1174.5 720 1196.9 660 1221.5C600 1246.1 540 1274.3 480 1303.3C420 1332.3 360 1364.3 300 1395.5C240 1426.6 180 1459.7 120 1490C60 1520.3 0 1551 -60 1577.2C-120 1603.3 -210 1635.2 -240 1646.8Z"/>
    <clipPath id="k2">
      <use href="#p2"/>
    </clipPath>
    <path id="t2" d="M-240 1321.9C-210 1321.5 -120 1327.5 -60 1319.3C0 1311.1 60 1295.2 120 1272.5C180 1249.8 240 1218.5 300 1182.9C360 1147.4 420 1103.6 480 1059.2C540 1014.8 600 964 660 916.3C720 868.6 780 817.6 840 772.9C900 728.3 960 684.1 1020 648.6C1080 613.1 1140 581.7 1200 560C1260 538.3 1320 523.8 1380 518.2C1440 512.7 1500 516.3 1560 526.6C1620 536.9 1680 556.8 1740 580C1800 603.1 1860 634.7 1920 665.5C1980 696.3 2040 732.8 2100 764.8C2160 796.7 2220 830.8 2280 857.2C2340 883.6 2400 908.1 2460 923.2C2520 938.4 2580 947.9 2640 948C2700 948 2760 939.8 2820 923.5C2880 907.3 2970 862.7 3000 850.5"/>
    <path id="u2" d="M-240 1646.8C-210 1635.2 -120 1603.3 -60 1577.2C0 1551 60 1520.3 120 1490C180 1459.7 240 1426.6 300 1395.5C360 1364.3 420 1332.3 480 1303.3C540 1274.3 600 1246.1 660 1221.5C720 1196.9 780 1174.5 840 1155.6C900 1136.8 960 1120.9 1020 1108.2C1080 1095.4 1140 1086 1200 1079.1C1260 1072.2 1320 1068.5 1380 1066.5C1440 1064.6 1500 1065.5 1560 1067.4C1620 1069.4 1680 1073.6 1740 1078.2C1800 1082.9 1860 1089.2 1920 1095.4C1980 1101.6 2040 1108.9 2100 1115.5C2160 1122.1 2220 1129.3 2280 1135.1C2340 1140.9 2400 1146.7 2460 1150.6C2520 1154.4 2580 1157.5 2640 1158C2700 1158.4 2760 1157.5 2820 1153.3C2880 1149.1 2970 1136.2 3000 1132.8"/>
    <path id="m2" d="M-240 1419.4C-210 1415.6 -120 1410.3 -60 1396.7C0 1383.1 60 1362.8 120 1337.8C180 1312.8 240 1280.9 300 1246.7C360 1212.5 420 1172.2 480 1132.4C540 1092.6 600 1048.7 660 1007.9C720 967.1 780 924.7 840 887.8C900 850.8 960 815.1 1020 786.5C1080 757.8 1140 733 1200 715.7C1260 698.4 1320 687.2 1380 682.7C1440 678.2 1500 681.1 1560 688.8C1620 696.6 1680 711.8 1740 729.4C1800 747 1860 771 1920 794.4C1980 817.9 2040 845.7 2100 870C2160 894.4 2220 920.3 2280 940.6C2340 960.8 2400 979.7 2460 991.4C2520 1003.2 2580 1010.8 2640 1011C2700 1011.1 2760 1005.1 2820 992.5C2880 979.8 2970 944.7 3000 935.2"/>
    <linearGradient id="r3" x1="0" y1="0" x2="2880" y2="-400" gradientUnits="userSpaceOnUse">
      <stop offset="0" stop-color="#ffb6cb"/>
      <stop offset="0.5" stop-color="#f5a3dc"/>
      <stop offset="1" stop-color="#c3a5ff"/>
    </linearGradient>
    <path id="p3" d="M-240 1404.2C-210 1384.7 -120 1324.3 -60 1287.3C0 1250.4 60 1213.6 120 1182.5C180 1151.3 240 1123.4 300 1100.5C360 1077.6 420 1059.6 480 1045.1C540 1030.5 600 1021.1 660 1013.3C720 1005.4 780 1001.6 840 997.8C900 994 960 992.6 1020 990.6C1080 988.7 1140 987.4 1200 986C1260 984.6 1320 983 1380 982.3C1440 981.6 1500 980.7 1560 982C1620 983.3 1680 985.3 1740 990.1C1800 994.9 1860 1001.7 1920 1010.9C1980 1020 2040 1032.2 2100 1045C2160 1057.7 2220 1073.7 2280 1087.6C2340 1101.5 2400 1117.5 2460 1128.5C2520 1139.5 2580 1150.2 2640 1153.7C2700 1157.2 2760 1157.4 2820 1149.5C2880 1141.6 2970 1113.4 3000 1106.2L3000 1301.7C2970 1316.2 2880 1361.1 2820 1388.9C2760 1416.8 2700 1445.6 2640 1468.5C2580 1491.4 2520 1512.7 2460 1526.4C2400 1540.1 2340 1549.2 2280 1550.6C2220 1552.1 2160 1546.4 2100 1534.8C2040 1523.2 1980 1503.4 1920 1480.9C1860 1458.4 1800 1428.4 1740 1399.8C1680 1371.3 1620 1337.7 1560 1309.7C1500 1281.7 1440 1252.5 1380 1231.8C1320 1211.1 1260 1193.5 1200 1185.5C1140 1177.5 1080 1176.4 1020 1183.9C960 1191.4 900 1208 840 1230.5C780 1253 720 1284.8 660 1318.8C600 1352.7 540 1394.4 480 1434.2C420 1474.1 360 1518.3 300 1557.9C240 1597.5 180 1637.7 120 1671.6C60 1705.6 0 1736.7 -60 1761.8C-120 1786.9 -210 1812 -240 1822.1Z"/>
    <clipPath id="k3">
      <use href="#p3"/>
    </clipPath>
    <path id="t3" d="M-240 1404.2C-210 1384.7 -120 1324.3 -60 1287.3C0 1250.4 60 1213.6 120 1182.5C180 1151.3 240 1123.4 300 1100.5C360 1077.6 420 1059.6 480 1045.1C540 1030.5 600 1021.1 660 1013.3C720 1005.4 780 1001.6 840 997.8C900 994 960 992.6 1020 990.6C1080 988.7 1140 987.4 1200 986C1260 984.6 1320 983 1380 982.3C1440 981.6 1500 980.7 1560 982C1620 983.3 1680 985.3 1740 990.1C1800 994.9 1860 1001.7 1920 1010.9C1980 1020 2040 1032.2 2100 1045C2160 1057.7 2220 1073.7 2280 1087.6C2340 1101.5 2400 1117.5 2460 1128.5C2520 1139.5 2580 1150.2 2640 1153.7C2700 1157.2 2760 1157.4 2820 1149.5C2880 1141.6 2970 1113.4 3000 1106.2"/>
    <path id="u3" d="M-240 1822.1C-210 1812 -120 1786.9 -60 1761.8C0 1736.7 60 1705.6 120 1671.6C180 1637.7 240 1597.5 300 1557.9C360 1518.3 420 1474.1 480 1434.2C540 1394.4 600 1352.7 660 1318.8C720 1284.8 780 1253 840 1230.5C900 1208 960 1191.4 1020 1183.9C1080 1176.4 1140 1177.5 1200 1185.5C1260 1193.5 1320 1211.1 1380 1231.8C1440 1252.5 1500 1281.7 1560 1309.7C1620 1337.7 1680 1371.3 1740 1399.8C1800 1428.4 1860 1458.4 1920 1480.9C1980 1503.4 2040 1523.2 2100 1534.8C2160 1546.4 2220 1552.1 2280 1550.6C2340 1549.2 2400 1540.1 2460 1526.4C2520 1512.7 2580 1491.4 2640 1468.5C2700 1445.6 2760 1416.8 2820 1388.9C2880 1361.1 2970 1316.2 3000 1301.7"/>
    <path id="m3" d="M-240 1529.6C-210 1512.9 -120 1463.1 -60 1429.7C0 1396.3 60 1361.2 120 1329.2C180 1297.2 240 1265.6 300 1237.7C360 1209.8 420 1184 480 1161.8C540 1139.7 600 1120.6 660 1104.9C720 1089.2 780 1077 840 1067.6C900 1058.2 960 1052.2 1020 1048.6C1080 1045 1140 1044.4 1200 1045.9C1260 1047.3 1320 1051.4 1380 1057.1C1440 1062.9 1500 1071 1560 1080.3C1620 1089.7 1680 1101.1 1740 1113C1800 1125 1860 1138.7 1920 1151.9C1980 1165 2040 1179.5 2100 1191.9C2160 1204.4 2220 1217.2 2280 1226.5C2340 1235.8 2400 1244.2 2460 1247.9C2520 1251.5 2580 1252.6 2640 1248.1C2700 1243.7 2760 1235.2 2820 1221.3C2880 1207.4 2970 1174.3 3000 1164.8"/>
    <linearGradient id="r4" x1="0" y1="0" x2="2880" y2="-400" gradientUnits="userSpaceOnUse">
      <stop offset="0" stop-color="#ffd6a4"/>
      <stop offset="0.5" stop-color="#ffaea6"/>
      <stop offset="1" stop-color="#ff9cc4"/>
    </linearGradient>
    <path id="p4" d="M-240 1428C-210 1419.6 -120 1391.9 -60 1377.5C0 1363 60 1351.2 120 1341.3C180 1331.4 240 1324 300 1317.9C360 1311.9 420 1308 480 1304.8C540 1301.6 600 1300.1 660 1299C720 1297.9 780 1297.8 840 1298.1C900 1298.3 960 1299.2 1020 1300.4C1080 1301.7 1140 1303.3 1200 1305.4C1260 1307.6 1320 1310.1 1380 1313.1C1440 1316.1 1500 1319.6 1560 1323.5C1620 1327.3 1680 1331.7 1740 1336.1C1800 1340.4 1860 1345.3 1920 1349.4C1980 1353.5 2040 1357.9 2100 1360.7C2160 1363.4 2220 1365.9 2280 1365.9C2340 1365.9 2400 1364.8 2460 1360.5C2520 1356.2 2580 1349.9 2640 1340C2700 1330.2 2760 1317.5 2820 1301.4C2880 1285.4 2970 1253.3 3000 1243.7L3000 1518C2970 1534.2 2880 1583.2 2820 1615.3C2760 1647.5 2700 1681 2640 1710.8C2580 1740.6 2520 1769.9 2460 1794C2400 1818.2 2340 1839.8 2280 1855.5C2220 1871.2 2160 1882.6 2100 1888.3C2040 1893.9 1980 1894 1920 1889.3C1860 1884.7 1800 1873.9 1740 1860.2C1680 1846.4 1620 1827 1560 1806.8C1500 1786.6 1440 1761.9 1380 1738.9C1320 1715.8 1260 1690.3 1200 1668.5C1140 1646.7 1080 1624.7 1020 1608.1C960 1591.6 900 1577.2 840 1569C780 1560.9 720 1557 660 1559.2C600 1561.4 540 1569.3 480 1582.3C420 1595.4 360 1614.7 300 1637.5C240 1660.2 180 1688.9 120 1719C60 1749.1 0 1783.8 -60 1817.8C-120 1851.8 -210 1905.4 -240 1922.9Z"/>
    <clipPath id="k4">
      <use href="#p4"/>
    </clipPath>
    <path id="t4" d="M-240 1428C-210 1419.6 -120 1391.9 -60 1377.5C0 1363 60 1351.2 120 1341.3C180 1331.4 240 1324 300 1317.9C360 1311.9 420 1308 480 1304.8C540 1301.6 600 1300.1 660 1299C720 1297.9 780 1297.8 840 1298.1C900 1298.3 960 1299.2 1020 1300.4C1080 1301.7 1140 1303.3 1200 1305.4C1260 1307.6 1320 1310.1 1380 1313.1C1440 1316.1 1500 1319.6 1560 1323.5C1620 1327.3 1680 1331.7 1740 1336.1C1800 1340.4 1860 1345.3 1920 1349.4C1980 1353.5 2040 1357.9 2100 1360.7C2160 1363.4 2220 1365.9 2280 1365.9C2340 1365.9 2400 1364.8 2460 1360.5C2520 1356.2 2580 1349.9 2640 1340C2700 1330.2 2760 1317.5 2820 1301.4C2880 1285.4 2970 1253.3 3000 1243.7"/>
    <path id="u4" d="M-240 1922.9C-210 1905.4 -120 1851.8 -60 1817.8C0 1783.8 60 1749.1 120 1719C180 1688.9 240 1660.2 300 1637.5C360 1614.7 420 1595.4 480 1582.3C540 1569.3 600 1561.4 660 1559.2C720 1557 780 1560.9 840 1569C900 1577.2 960 1591.6 1020 1608.1C1080 1624.7 1140 1646.7 1200 1668.5C1260 1690.3 1320 1715.8 1380 1738.9C1440 1761.9 1500 1786.6 1560 1806.8C1620 1827 1680 1846.4 1740 1860.2C1800 1873.9 1860 1884.7 1920 1889.3C1980 1894 2040 1893.9 2100 1888.3C2160 1882.6 2220 1871.2 2280 1855.5C2340 1839.8 2400 1818.2 2460 1794C2520 1769.9 2580 1740.6 2640 1710.8C2700 1681 2760 1647.5 2820 1615.3C2880 1583.2 2970 1534.2 3000 1518"/>
    <path id="m4" d="M-240 1576.5C-210 1565.3 -120 1529.9 -60 1509.6C0 1489.3 60 1470.6 120 1454.6C180 1438.6 240 1424.9 300 1413.8C360 1402.7 420 1394.2 480 1388.1C540 1381.9 600 1378.5 660 1377.1C720 1375.6 780 1376.7 840 1379.3C900 1382 960 1386.9 1020 1392.7C1080 1398.6 1140 1406.3 1200 1414.3C1260 1422.4 1320 1431.8 1380 1440.8C1440 1449.8 1500 1459.7 1560 1468.5C1620 1477.2 1680 1486.1 1740 1493.3C1800 1500.5 1860 1507.1 1920 1511.4C1980 1515.7 2040 1518.7 2100 1518.9C2160 1519.2 2220 1517.5 2280 1512.8C2340 1508 2400 1500.8 2460 1490.5C2520 1480.3 2580 1467.1 2640 1451.3C2700 1435.5 2760 1416.5 2820 1395.6C2880 1374.7 2970 1337.6 3000 1326"/>
  </defs>
  <rect width="2880" height="1800" fill="url(#bg)"/>
  <g fill-opacity=".6">
    <circle cx="400" cy="300" r="800" fill="url(#blobA)"/>
    <circle cx="2500" cy="1500" r="840" fill="url(#blobB)"/>
    <circle cx="2300" cy="250" r="700" fill="url(#blobC)"/>
  </g>
  <g fill="none" stroke="#5a3f8f" stroke-opacity="0.0115" stroke-linejoin="round" transform="translate(0 20)">
    <use href="#u0" stroke-width="10.7"/>
    <use href="#u0" stroke-width="21.4"/>
    <use href="#u0" stroke-width="32.1"/>
    <use href="#u0" stroke-width="42.9"/>
    <use href="#u0" stroke-width="53.6"/>
    <use href="#u0" stroke-width="64.3"/>
    <use href="#u0" stroke-width="75"/>
    <use href="#u0" stroke-width="85.7"/>
    <use href="#u0" stroke-width="96.4"/>
    <use href="#u0" stroke-width="107.1"/>
    <use href="#u0" stroke-width="117.9"/>
    <use href="#u0" stroke-width="128.6"/>
    <use href="#u0" stroke-width="139.3"/>
    <use href="#u0" stroke-width="150"/>
  </g>
  <use href="#p0" fill="url(#r0)"/>
  <g clip-path="url(#k0)">
    <g fill="none" stroke="#fff" stroke-opacity="0.0444" stroke-linejoin="round">
      <use href="#m0" stroke-width="22.4"/>
      <use href="#m0" stroke-width="41.9"/>
      <use href="#m0" stroke-width="60.3"/>
      <use href="#m0" stroke-width="78.1"/>
      <use href="#m0" stroke-width="95.5"/>
      <use href="#m0" stroke-width="112.5"/>
      <use href="#m0" stroke-width="129.3"/>
      <use href="#m0" stroke-width="145.8"/>
      <use href="#m0" stroke-width="162.1"/>
      <use href="#m0" stroke-width="178.2"/>
      <use href="#m0" stroke-width="194.2"/>
      <use href="#m0" stroke-width="210"/>
    </g>
    <g fill="none" stroke="#7a4fb8" stroke-opacity="0.0187" stroke-linejoin="round">
      <use href="#u0" stroke-width="30"/>
      <use href="#u0" stroke-width="60"/>
      <use href="#u0" stroke-width="90"/>
      <use href="#u0" stroke-width="120"/>
      <use href="#u0" stroke-width="150"/>
      <use href="#u0" stroke-width="180"/>
      <use href="#u0" stroke-width="210"/>
      <use href="#u0" stroke-width="240"/>
    </g>
  </g>
  <use href="#t0" fill="none" stroke="#fff" stroke-opacity=".65" stroke-width="2.5"/>
  <g fill="none" stroke="#5a3f8f" stroke-opacity="0.0115" stroke-linejoin="round" transform="translate(0 20)">
    <use href="#u1" stroke-width="10.7"/>
    <use href="#u1" stroke-width="21.4"/>
    <use href="#u1" stroke-width="32.1"/>
    <use href="#u1" stroke-width="42.9"/>
    <use href="#u1" stroke-width="53.6"/>
    <use href="#u1" stroke-width="64.3"/>
    <use href="#u1" stroke-width="75"/>
    <use href="#u1" stroke-width="85.7"/>
    <use href="#u1" stroke-width="96.4"/>
    <use href="#u1" stroke-width="107.1"/>
    <use href="#u1" stroke-width="117.9"/>
    <use href="#u1" stroke-width="128.6"/>
    <use href="#u1" stroke-width="139.3"/>
    <use href="#u1" stroke-width="150"/>
  </g>
  <use href="#p1" fill="url(#r1)"/>
  <g clip-path="url(#k1)">
    <g fill="none" stroke="#fff" stroke-opacity="0.0444" stroke-linejoin="round">
      <use href="#m1" stroke-width="22.4"/>
      <use href="#m1" stroke-width="41.9"/>
      <use href="#m1" stroke-width="60.3"/>
      <use href="#m1" stroke-width="78.1"/>
      <use href="#m1" stroke-width="95.5"/>
      <use href="#m1" stroke-width="112.5"/>
      <use href="#m1" stroke-width="129.3"/>
      <use href="#m1" stroke-width="145.8"/>
      <use href="#m1" stroke-width="162.1"/>
      <use href="#m1" stroke-width="178.2"/>
      <use href="#m1" stroke-width="194.2"/>
      <use href="#m1" stroke-width="210"/>
    </g>
    <g fill="none" stroke="#7a4fb8" stroke-opacity="0.0187" stroke-linejoin="round">
      <use href="#u1" stroke-width="30"/>
      <use href="#u1" stroke-width="60"/>
      <use href="#u1" stroke-width="90"/>
      <use href="#u1" stroke-width="120"/>
      <use href="#u1" stroke-width="150"/>
      <use href="#u1" stroke-width="180"/>
      <use href="#u1" stroke-width="210"/>
      <use href="#u1" stroke-width="240"/>
    </g>
  </g>
  <use href="#t1" fill="none" stroke="#fff" stroke-opacity=".65" stroke-width="2.5"/>
  <g fill="none" stroke="#5a3f8f" stroke-opacity="0.0115" stroke-linejoin="round" transform="translate(0 20)">
    <use href="#u2" stroke-width="10.7"/>
    <use href="#u2" stroke-width="21.4"/>
    <use href="#u2" stroke-width="32.1"/>
    <use href="#u2" stroke-width="42.9"/>
    <use href="#u2" stroke-width="53.6"/>
    <use href="#u2" stroke-width="64.3"/>
    <use href="#u2" stroke-width="75"/>
    <use href="#u2" stroke-width="85.7"/>
    <use href="#u2" stroke-width="96.4"/>
    <use href="#u2" stroke-width="107.1"/>
    <use href="#u2" stroke-width="117.9"/>
    <use href="#u2" stroke-width="128.6"/>
    <use href="#u2" stroke-width="139.3"/>
    <use href="#u2" stroke-width="150"/>
  </g>
  <use href="#p2" fill="url(#r2)"/>
  <g clip-path="url(#k2)">
    <g fill="none" stroke="#fff" stroke-opacity="0.0444" stroke-linejoin="round">
      <use href="#m2" stroke-width="22.4"/>
      <use href="#m2" stroke-width="41.9"/>
      <use href="#m2" stroke-width="60.3"/>
      <use href="#m2" stroke-width="78.1"/>
      <use href="#m2" stroke-width="95.5"/>
      <use href="#m2" stroke-width="112.5"/>
      <use href="#m2" stroke-width="129.3"/>
      <use href="#m2" stroke-width="145.8"/>
      <use href="#m2" stroke-width="162.1"/>
      <use href="#m2" stroke-width="178.2"/>
      <use href="#m2" stroke-width="194.2"/>
      <use href="#m2" stroke-width="210"/>
    </g>
    <g fill="none" stroke="#7a4fb8" stroke-opacity="0.0187" stroke-linejoin="round">
      <use href="#u2" stroke-width="30"/>
      <use href="#u2" stroke-width="60"/>
      <use href="#u2" stroke-width="90"/>
      <use href="#u2" stroke-width="120"/>
      <use href="#u2" stroke-width="150"/>
      <use href="#u2" stroke-width="180"/>
      <use href="#u2" stroke-width="210"/>
      <use href="#u2" stroke-width="240"/>
    </g>
  </g>
  <use href="#t2" fill="none" stroke="#fff" stroke-opacity=".65" stroke-width="2.5"/>
  <g fill="none" stroke="#5a3f8f" stroke-opacity="0.0115" stroke-linejoin="round" transform="translate(0 20)">
    <use href="#u3" stroke-width="10.7"/>
    <use href="#u3" stroke-width="21.4"/>
    <use href="#u3" stroke-width="32.1"/>
    <use href="#u3" stroke-width="42.9"/>
    <use href="#u3" stroke-width="53.6"/>
    <use href="#u3" stroke-width="64.3"/>
    <use href="#u3" stroke-width="75"/>
    <use href="#u3" stroke-width="85.7"/>
    <use href="#u3" stroke-width="96.4"/>
    <use href="#u3" stroke-width="107.1"/>
    <use href="#u3" stroke-width="117.9"/>
    <use href="#u3" stroke-width="128.6"/>
    <use href="#u3" stroke-width="139.3"/>
    <use href="#u3" stroke-width="150"/>
  </g>
  <use href="#p3" fill="url(#r3)"/>
  <g clip-path="url(#k3)">
    <g fill="none" stroke="#fff" stroke-opacity="0.0444" stroke-linejoin="round">
      <use href="#m3" stroke-width="22.4"/>
      <use href="#m3" stroke-width="41.9"/>
      <use href="#m3" stroke-width="60.3"/>
      <use href="#m3" stroke-width="78.1"/>
      <use href="#m3" stroke-width="95.5"/>
      <use href="#m3" stroke-width="112.5"/>
      <use href="#m3" stroke-width="129.3"/>
      <use href="#m3" stroke-width="145.8"/>
      <use href="#m3" stroke-width="162.1"/>
      <use href="#m3" stroke-width="178.2"/>
      <use href="#m3" stroke-width="194.2"/>
      <use href="#m3" stroke-width="210"/>
    </g>
    <g fill="none" stroke="#7a4fb8" stroke-opacity="0.0187" stroke-linejoin="round">
      <use href="#u3" stroke-width="30"/>
      <use href="#u3" stroke-width="60"/>
      <use href="#u3" stroke-width="90"/>
      <use href="#u3" stroke-width="120"/>
      <use href="#u3" stroke-width="150"/>
      <use href="#u3" stroke-width="180"/>
      <use href="#u3" stroke-width="210"/>
      <use href="#u3" stroke-width="240"/>
    </g>
  </g>
  <use href="#t3" fill="none" stroke="#fff" stroke-opacity=".65" stroke-width="2.5"/>
  <g fill="none" stroke="#5a3f8f" stroke-opacity="0.0115" stroke-linejoin="round" transform="translate(0 20)">
    <use href="#u4" stroke-width="10.7"/>
    <use href="#u4" stroke-width="21.4"/>
    <use href="#u4" stroke-width="32.1"/>
    <use href="#u4" stroke-width="42.9"/>
    <use href="#u4" stroke-width="53.6"/>
    <use href="#u4" stroke-width="64.3"/>
    <use href="#u4" stroke-width="75"/>
    <use href="#u4" stroke-width="85.7"/>
    <use href="#u4" stroke-width="96.4"/>
    <use href="#u4" stroke-width="107.1"/>
    <use href="#u4" stroke-width="117.9"/>
    <use href="#u4" stroke-width="128.6"/>
    <use href="#u4" stroke-width="139.3"/>
    <use href="#u4" stroke-width="150"/>
  </g>
  <use href="#p4" fill="url(#r4)"/>
  <g clip-path="url(#k4)">
    <g fill="none" stroke="#fff" stroke-opacity="0.0444" stroke-linejoin="round">
      <use href="#m4" stroke-width="22.4"/>
      <use href="#m4" stroke-width="41.9"/>
      <use href="#m4" stroke-width="60.3"/>
      <use href="#m4" stroke-width="78.1"/>
      <use href="#m4" stroke-width="95.5"/>
      <use href="#m4" stroke-width="112.5"/>
      <use href="#m4" stroke-width="129.3"/>
      <use href="#m4" stroke-width="145.8"/>
      <use href="#m4" stroke-width="162.1"/>
      <use href="#m4" stroke-width="178.2"/>
      <use href="#m4" stroke-width="194.2"/>
      <use href="#m4" stroke-width="210"/>
    </g>
    <g fill="none" stroke="#7a4fb8" stroke-opacity="0.0187" stroke-linejoin="round">
      <use href="#u4" stroke-width="30"/>
      <use href="#u4" stroke-width="60"/>
      <use href="#u4" stroke-width="90"/>
      <use href="#u4" stroke-width="120"/>
      <use href="#u4" stroke-width="150"/>
      <use href="#u4" stroke-width="180"/>
      <use href="#u4" stroke-width="210"/>
      <use href="#u4" stroke-width="240"/>
    </g>
  </g>
  <use href="#t4" fill="none" stroke="#fff" stroke-opacity=".65" stroke-width="2.5"/>
</svg>
