<!-- webOS wallpaper · Jeju Sea (light) — layered turquoise waves -->
<svg xmlns="http://www.w3.org/2000/svg" width="2880" height="1800" viewBox="0 0 2880 1800" preserveAspectRatio="xMidYMid slice">
  <defs>
    <linearGradient id="bg" x1="0" y1="0" x2="0" y2="1800" gradientUnits="userSpaceOnUse">
      <stop offset="0" stop-color="#eefcf9"/>
      <stop offset="0.25" stop-color="#d5f5f0"/>
      <stop offset="1" stop-color="#a4e4de"/>
    </linearGradient>
    <radialGradient id="sunlight" cx="2250" cy="-60" r="1500" gradientUnits="userSpaceOnUse">
      <stop offset="0" stop-color="#fffdf2"/>
      <stop offset="0.35" stop-color="#fff6dc" stop-opacity="0.45"/>
      <stop offset="1" stop-color="#fff6dc" stop-opacity="0"/>
    </radialGradient>
    <linearGradient id="w0" x1="0" y1="260.18878814079767" x2="0" y2="700.1887881407977" gradientUnits="userSpaceOnUse">
      <stop offset="0" stop-color="#c4f2ec"/>
      <stop offset="1" stop-color="#97dfd9"/>
    </linearGradient>
    <linearGradient id="h0" x1="0" y1="260.18878814079767" x2="2880" y2="760.1887881407977" gradientUnits="userSpaceOnUse">
      <stop offset="0" stop-color="#ffffff" stop-opacity="0.11"/>
      <stop offset="0.25" stop-color="#ffffff" stop-opacity="0.12"/>
      <stop offset="0.5" stop-color="#ffffff" stop-opacity="0.04"/>
      <stop offset="0.75" stop-color="#ffffff" stop-opacity="0.1"/>
      <stop offset="1" stop-color="#ffffff" stop-opacity="0.01"/>
    </linearGradient>
    <path id="b0" d="M-200 558.6C-165.8 563.3 -63.3 581 5 586.5C73.3 592 141.7 593.4 210 591.5C278.3 589.6 346.7 581 415 575.2C483.3 569.4 551.7 561.5 620 556.6C688.3 551.8 756.7 550.3 825 546.2C893.3 542.2 961.7 540.7 1030 532.3C1098.3 523.9 1166.7 511.8 1235 495.9C1303.3 479.9 1371.7 456.4 1440 436.4C1508.3 416.5 1576.7 392.6 1645 376.1C1713.3 359.5 1781.7 346.6 1850 337.1C1918.3 327.6 1986.7 324.7 2055 319.2C2123.3 313.7 2191.7 310.5 2260 304.1C2328.3 297.7 2396.7 288 2465 280.7C2533.3 273.4 2601.7 263.3 2670 260.2C2738.3 257.1 2806.7 257.4 2875 262.1C2943.3 266.9 3045.8 284.2 3080 288.6L3080 1900L-200 1900Z"/>
    <path id="c0" d="M-200 558.6C-165.8 563.3 -63.3 581 5 586.5C73.3 592 141.7 593.4 210 591.5C278.3 589.6 346.7 581 415 575.2C483.3 569.4 551.7 561.5 620 556.6C688.3 551.8 756.7 550.3 825 546.2C893.3 542.2 961.7 540.7 1030 532.3C1098.3 523.9 1166.7 511.8 1235 495.9C1303.3 479.9 1371.7 456.4 1440 436.4C1508.3 416.5 1576.7 392.6 1645 376.1C1713.3 359.5 1781.7 346.6 1850 337.1C1918.3 327.6 1986.7 324.7 2055 319.2C2123.3 313.7 2191.7 310.5 2260 304.1C2328.3 297.7 2396.7 288 2465 280.7C2533.3 273.4 2601.7 263.3 2670 260.2C2738.3 257.1 2806.7 257.4 2875 262.1C2943.3 266.9 3045.8 284.2 3080 288.6"/>
    <clipPath id="k0">
      <use href="#b0"/>
    </clipPath>
    <linearGradient id="w1" x1="0" y1="479.5964466833184" x2="0" y2="919.5964466833184" gradientUnits="userSpaceOnUse">
      <stop offset="0" stop-color="#9de6df"/>
      <stop offset="1" stop-color="#62cbc8"/>
    </linearGradient>
    <linearGradient id="h1" x1="0" y1="479.5964466833184" x2="2880" y2="979.5964466833184" gradientUnits="userSpaceOnUse">
      <stop offset="0" stop-color="#ffffff" stop-opacity="0.09"/>
      <stop offset="0.25" stop-color="#ffffff" stop-opacity="0.12"/>
      <stop offset="0.5" stop-color="#ffffff" stop-opacity="0.07"/>
      <stop offset="0.75" stop-color="#ffffff" stop-opacity="0.14"/>
      <stop offset="1" stop-color="#ffffff" stop-opacity="0.04"/>
    </linearGradient>
    <path id="b1" d="M-200 781.6C-165.8 784.9 -63.3 799.4 5 801.2C73.3 802.9 141.7 802.8 210 791.9C278.3 781.1 346.7 757.5 415 735.9C483.3 714.4 551.7 683.4 620 662.7C688.3 642 756.7 625.1 825 611.9C893.3 598.8 961.7 594.2 1030 583.8C1098.3 573.3 1166.7 562.7 1235 549.3C1303.3 535.9 1371.7 514.9 1440 503.3C1508.3 491.7 1576.7 479.6 1645 479.6C1713.3 479.6 1781.7 491.2 1850 503.4C1918.3 515.6 1986.7 539 2055 552.7C2123.3 566.4 2191.7 578.8 2260 585.6C2328.3 592.4 2396.7 590.6 2465 593.8C2533.3 597 2601.7 598.6 2670 604.7C2738.3 610.7 2806.7 624.2 2875 630.1C2943.3 636.1 3045.8 638.8 3080 640.5L3080 1900L-200 1900Z"/>
    <path id="c1" d="M-200 781.6C-165.8 784.9 -63.3 799.4 5 801.2C73.3 802.9 141.7 802.8 210 791.9C278.3 781.1 346.7 757.5 415 735.9C483.3 714.4 551.7 683.4 620 662.7C688.3 642 756.7 625.1 825 611.9C893.3 598.8 961.7 594.2 1030 583.8C1098.3 573.3 1166.7 562.7 1235 549.3C1303.3 535.9 1371.7 514.9 1440 503.3C1508.3 491.7 1576.7 479.6 1645 479.6C1713.3 479.6 1781.7 491.2 1850 503.4C1918.3 515.6 1986.7 539 2055 552.7C2123.3 566.4 2191.7 578.8 2260 585.6C2328.3 592.4 2396.7 590.6 2465 593.8C2533.3 597 2601.7 598.6 2670 604.7C2738.3 610.7 2806.7 624.2 2875 630.1C2943.3 636.1 3045.8 638.8 3080 640.5"/>
    <clipPath id="k1">
      <use href="#b1"/>
    </clipPath>
    <linearGradient id="w2" x1="0" y1="671.153979834921" x2="0" y2="1111.1539798349208" gradientUnits="userSpaceOnUse">
      <stop offset="0" stop-color="#72d8d2"/>
      <stop offset="1" stop-color="#36b4b8"/>
    </linearGradient>
    <linearGradient id="h2" x1="0" y1="671.153979834921" x2="2880" y2="1171.1539798349208" gradientUnits="userSpaceOnUse">
      <stop offset="0" stop-color="#ffffff" stop-opacity="0.12"/>
      <stop offset="0.25" stop-color="#ffffff" stop-opacity="0.12"/>
      <stop offset="0.5" stop-color="#ffffff" stop-opacity="0.11"/>
      <stop offset="0.75" stop-color="#ffffff" stop-opacity="0"/>
      <stop offset="1" stop-color="#ffffff" stop-opacity="0.07"/>
    </linearGradient>
    <path id="b2" d="M-200 884.1C-165.8 878.2 -63.3 866.3 5 848.8C73.3 831.3 141.7 802.3 210 779C278.3 755.6 346.7 726.7 415 708.8C483.3 690.8 551.7 677.1 620 671.2C688.3 665.2 756.7 669 825 673.3C893.3 677.6 961.7 688.8 1030 697.1C1098.3 705.4 1166.7 714.1 1235 722.9C1303.3 731.8 1371.7 738.4 1440 750.3C1508.3 762.2 1576.7 775.7 1645 794.4C1713.3 813.1 1781.7 838.7 1850 862.3C1918.3 886 1986.7 916.3 2055 936.2C2123.3 956.2 2191.7 975.1 2260 982.1C2328.3 989 2396.7 986 2465 977.7C2533.3 969.4 2601.7 949.1 2670 932.2C2738.3 915.4 2806.7 892.6 2875 876.6C2943.3 860.6 3045.8 843.1 3080 836.4L3080 1900L-200 1900Z"/>
    <path id="c2" d="M-200 884.1C-165.8 878.2 -63.3 866.3 5 848.8C73.3 831.3 141.7 802.3 210 779C278.3 755.6 346.7 726.7 415 708.8C483.3 690.8 551.7 677.1 620 671.2C688.3 665.2 756.7 669 825 673.3C893.3 677.6 961.7 688.8 1030 697.1C1098.3 705.4 1166.7 714.1 1235 722.9C1303.3 731.8 1371.7 738.4 1440 750.3C1508.3 762.2 1576.7 775.7 1645 794.4C1713.3 813.1 1781.7 838.7 1850 862.3C1918.3 886 1986.7 916.3 2055 936.2C2123.3 956.2 2191.7 975.1 2260 982.1C2328.3 989 2396.7 986 2465 977.7C2533.3 969.4 2601.7 949.1 2670 932.2C2738.3 915.4 2806.7 892.6 2875 876.6C2943.3 860.6 3045.8 843.1 3080 836.4"/>
    <clipPath id="k2">
      <use href="#b2"/>
    </clipPath>
    <linearGradient id="w3" x1="0" y1="793.8995826434848" x2="0" y2="1233.8995826434848" gradientUnits="userSpaceOnUse">
      <stop offset="0" stop-color="#47c5c4"/>
      <stop offset="1" stop-color="#1c98a6"/>
    </linearGradient>
    <linearGradient id="h3" x1="0" y1="793.8995826434848" x2="2880" y2="1293.8995826434848" gradientUnits="userSpaceOnUse">
      <stop offset="0" stop-color="#ffffff" stop-opacity="0.05"/>
      <stop offset="0.25" stop-color="#ffffff" stop-opacity="0.14"/>
      <stop offset="0.5" stop-color="#ffffff" stop-opacity="0.05"/>
      <stop offset="0.75" stop-color="#ffffff" stop-opacity="0.12"/>
      <stop offset="1" stop-color="#ffffff" stop-opacity="0.12"/>
    </linearGradient>
    <path id="b3" d="M-200 874.9C-165.8 874.1 -63.3 876.2 5 870.3C73.3 864.5 141.7 852.3 210 839.5C278.3 826.8 346.7 801.1 415 793.9C483.3 786.7 551.7 785.4 620 796.2C688.3 807 756.7 837.6 825 858.9C893.3 880.2 961.7 907.3 1030 923.9C1098.3 940.6 1166.7 945.5 1235 958.8C1303.3 972 1371.7 981.6 1440 1003.4C1508.3 1025.3 1576.7 1061.5 1645 1089.7C1713.3 1118 1781.7 1155.2 1850 1172.9C1918.3 1190.6 1986.7 1195.2 2055 1196.1C2123.3 1196.9 2191.7 1181.6 2260 1178.2C2328.3 1174.9 2396.7 1174.8 2465 1176.1C2533.3 1177.4 2601.7 1189.6 2670 1186.2C2738.3 1182.9 2806.7 1173 2875 1155.9C2943.3 1138.8 3045.8 1095.7 3080 1083.7L3080 1900L-200 1900Z"/>
    <path id="c3" d="M-200 874.9C-165.8 874.1 -63.3 876.2 5 870.3C73.3 864.5 141.7 852.3 210 839.5C278.3 826.8 346.7 801.1 415 793.9C483.3 786.7 551.7 785.4 620 796.2C688.3 807 756.7 837.6 825 858.9C893.3 880.2 961.7 907.3 1030 923.9C1098.3 940.6 1166.7 945.5 1235 958.8C1303.3 972 1371.7 981.6 1440 1003.4C1508.3 1025.3 1576.7 1061.5 1645 1089.7C1713.3 1118 1781.7 1155.2 1850 1172.9C1918.3 1190.6 1986.7 1195.2 2055 1196.1C2123.3 1196.9 2191.7 1181.6 2260 1178.2C2328.3 1174.9 2396.7 1174.8 2465 1176.1C2533.3 1177.4 2601.7 1189.6 2670 1186.2C2738.3 1182.9 2806.7 1173 2875 1155.9C2943.3 1138.8 3045.8 1095.7 3080 1083.7"/>
    <clipPath id="k3">
      <use href="#b3"/>
    </clipPath>
    <linearGradient id="w4" x1="0" y1="1041.6257791917333" x2="0" y2="1481.6257791917333" gradientUnits="userSpaceOnUse">
      <stop offset="0" stop-color="#29adb5"/>
      <stop offset="1" stop-color="#117f97"/>
    </linearGradient>
    <linearGradient id="h4" x1="0" y1="1041.6257791917333" x2="2880" y2="1541.6257791917333" gradientUnits="userSpaceOnUse">
      <stop offset="0" stop-color="#ffffff" stop-opacity="0.04"/>
      <stop offset="0.25" stop-color="#ffffff" stop-opacity="0"/>
      <stop offset="0.5" stop-color="#ffffff" stop-opacity="0.13"/>
      <stop offset="0.75" stop-color="#ffffff" stop-opacity="0.03"/>
      <stop offset="1" stop-color="#ffffff" stop-opacity="0.04"/>
    </linearGradient>
    <path id="b4" d="M-200 1059C-165.8 1056.1 -63.3 1043.2 5 1041.6C73.3 1040 141.7 1039.9 210 1049.4C278.3 1058.9 346.7 1076 415 1098.8C483.3 1121.6 551.7 1155.5 620 1185.9C688.3 1216.3 756.7 1254.5 825 1281C893.3 1307.4 961.7 1332.6 1030 1344.5C1098.3 1356.5 1166.7 1358.2 1235 1352.7C1303.3 1347.3 1371.7 1329 1440 1311.9C1508.3 1294.8 1576.7 1269.6 1645 1250.2C1713.3 1230.8 1781.7 1211 1850 1195.5C1918.3 1180.1 1986.7 1168.6 2055 1157.6C2123.3 1146.7 2191.7 1138.5 2260 1129.9C2328.3 1121.3 2396.7 1112.1 2465 1106.2C2533.3 1100.3 2601.7 1093.2 2670 1094.5C2738.3 1095.9 2806.7 1100.5 2875 1114.4C2943.3 1128.2 3045.8 1167 3080 1177.5L3080 1900L-200 1900Z"/>
    <path id="c4" d="M-200 1059C-165.8 1056.1 -63.3 1043.2 5 1041.6C73.3 1040 141.7 1039.9 210 1049.4C278.3 1058.9 346.7 1076 415 1098.8C483.3 1121.6 551.7 1155.5 620 1185.9C688.3 1216.3 756.7 1254.5 825 1281C893.3 1307.4 961.7 1332.6 1030 1344.5C1098.3 1356.5 1166.7 1358.2 1235 1352.7C1303.3 1347.3 1371.7 1329 1440 1311.9C1508.3 1294.8 1576.7 1269.6 1645 1250.2C1713.3 1230.8 1781.7 1211 1850 1195.5C1918.3 1180.1 1986.7 1168.6 2055 1157.6C2123.3 1146.7 2191.7 1138.5 2260 1129.9C2328.3 1121.3 2396.7 1112.1 2465 1106.2C2533.3 1100.3 2601.7 1093.2 2670 1094.5C2738.3 1095.9 2806.7 1100.5 2875 1114.4C2943.3 1128.2 3045.8 1167 3080 1177.5"/>
    <clipPath id="k4">
      <use href="#b4"/>
    </clipPath>
    <linearGradient id="w5" x1="0" y1="1177.103772099402" x2="0" y2="1617.103772099402" gradientUnits="userSpaceOnUse">
      <stop offset="0" stop-color="#1792a5"/>
      <stop offset="1" stop-color="#0b6582"/>
    </linearGradient>
    <linearGradient id="h5" x1="0" y1="1177.103772099402" x2="2880" y2="1677.103772099402" gradientUnits="userSpaceOnUse">
      <stop offset="0" stop-color="#ffffff" stop-opacity="0.02"/>
      <stop offset="0.25" stop-color="#ffffff" stop-opacity="0.08"/>
      <stop offset="0.5" stop-color="#ffffff" stop-opacity="0.16"/>
      <stop offset="0.75" stop-color="#ffffff" stop-opacity="0.04"/>
      <stop offset="1" stop-color="#ffffff" stop-opacity="0.01"/>
    </linearGradient>
    <path id="b5" d="M-200 1404.7C-165.8 1411.7 -63.3 1436.5 5 1446.5C73.3 1456.4 141.7 1458.9 210 1464.4C278.3 1469.8 346.7 1470.3 415 1479.1C483.3 1487.8 551.7 1503.5 620 1517C688.3 1530.6 756.7 1552.8 825 1560.4C893.3 1568 961.7 1571.2 1030 1562.8C1098.3 1554.3 1166.7 1530.4 1235 1509.7C1303.3 1488.9 1371.7 1458.6 1440 1438.2C1508.3 1417.8 1576.7 1402.1 1645 1387.4C1713.3 1372.6 1781.7 1365.5 1850 1350C1918.3 1334.5 1986.7 1315.7 2055 1294.4C2123.3 1273.1 2191.7 1241.8 2260 1222.3C2328.3 1202.7 2396.7 1182.6 2465 1177.1C2533.3 1171.6 2601.7 1179.5 2670 1189.1C2738.3 1198.6 2806.7 1221.4 2875 1234.6C2943.3 1247.7 3045.8 1262.5 3080 1268.1L3080 1900L-200 1900Z"/>
    <path id="c5" d="M-200 1404.7C-165.8 1411.7 -63.3 1436.5 5 1446.5C73.3 1456.4 141.7 1458.9 210 1464.4C278.3 1469.8 346.7 1470.3 415 1479.1C483.3 1487.8 551.7 1503.5 620 1517C688.3 1530.6 756.7 1552.8 825 1560.4C893.3 1568 961.7 1571.2 1030 1562.8C1098.3 1554.3 1166.7 1530.4 1235 1509.7C1303.3 1488.9 1371.7 1458.6 1440 1438.2C1508.3 1417.8 1576.7 1402.1 1645 1387.4C1713.3 1372.6 1781.7 1365.5 1850 1350C1918.3 1334.5 1986.7 1315.7 2055 1294.4C2123.3 1273.1 2191.7 1241.8 2260 1222.3C2328.3 1202.7 2396.7 1182.6 2465 1177.1C2533.3 1171.6 2601.7 1179.5 2670 1189.1C2738.3 1198.6 2806.7 1221.4 2875 1234.6C2943.3 1247.7 3045.8 1262.5 3080 1268.1"/>
    <clipPath id="k5">
      <use href="#b5"/>
    </clipPath>
    <linearGradient id="w6" x1="0" y1="1462.056930119101" x2="0" y2="1902.056930119101" gradientUnits="userSpaceOnUse">
      <stop offset="0" stop-color="#0e7a95"/>
      <stop offset="1" stop-color="#074a6c"/>
    </linearGradient>
    <linearGradient id="h6" x1="0" y1="1462.056930119101" x2="2880" y2="1962.056930119101" gradientUnits="userSpaceOnUse">
      <stop offset="0" stop-color="#ffffff" stop-opacity="0.14"/>
      <stop offset="0.25" stop-color="#ffffff" stop-opacity="0.05"/>
      <stop offset="0.5" stop-color="#ffffff" stop-opacity="0.07"/>
      <stop offset="0.75" stop-color="#ffffff" stop-opacity="0.16"/>
      <stop offset="1" stop-color="#ffffff" stop-opacity="0.04"/>
    </linearGradient>
    <path id="b6" d="M-200 1678.2C-165.8 1684.9 -63.3 1707.9 5 1718.1C73.3 1728.2 141.7 1737.7 210 1739.1C278.3 1740.4 346.7 1734.1 415 1726C483.3 1718 551.7 1702 620 1690.7C688.3 1679.3 756.7 1666.5 825 1657.9C893.3 1649.2 961.7 1644.9 1030 1638.6C1098.3 1632.2 1166.7 1629.1 1235 1619.8C1303.3 1610.5 1371.7 1598.1 1440 1582.8C1508.3 1567.6 1576.7 1545.5 1645 1528.4C1713.3 1511.3 1781.7 1491.3 1850 1480.2C1918.3 1469.2 1986.7 1463.1 2055 1462.1C2123.3 1461 2191.7 1468.6 2260 1473.8C2328.3 1479 2396.7 1488.7 2465 1493.4C2533.3 1498.1 2601.7 1500.2 2670 1501.9C2738.3 1503.6 2806.7 1500.7 2875 1503.4C2943.3 1506.1 3045.8 1515.6 3080 1518.1L3080 1900L-200 1900Z"/>
    <path id="c6" d="M-200 1678.2C-165.8 1684.9 -63.3 1707.9 5 1718.1C73.3 1728.2 141.7 1737.7 210 1739.1C278.3 1740.4 346.7 1734.1 415 1726C483.3 1718 551.7 1702 620 1690.7C688.3 1679.3 756.7 1666.5 825 1657.9C893.3 1649.2 961.7 1644.9 1030 1638.6C1098.3 1632.2 1166.7 1629.1 1235 1619.8C1303.3 1610.5 1371.7 1598.1 1440 1582.8C1508.3 1567.6 1576.7 1545.5 1645 1528.4C1713.3 1511.3 1781.7 1491.3 1850 1480.2C1918.3 1469.2 1986.7 1463.1 2055 1462.1C2123.3 1461 2191.7 1468.6 2260 1473.8C2328.3 1479 2396.7 1488.7 2465 1493.4C2533.3 1498.1 2601.7 1500.2 2670 1501.9C2738.3 1503.6 2806.7 1500.7 2875 1503.4C2943.3 1506.1 3045.8 1515.6 3080 1518.1"/>
    <clipPath id="k6">
      <use href="#b6"/>
    </clipPath>
  </defs>
  <rect width="2880" height="1800" fill="url(#bg)"/>
  <rect width="2880" height="1800" fill="url(#sunlight)"/>
  <g fill="none" stroke="#2a8a96" stroke-opacity="0.009" stroke-linejoin="round" transform="translate(0 -10)">
    <use href="#c0" stroke-width="6"/>
    <use href="#c0" stroke-width="12"/>
    <use href="#c0" stroke-width="18"/>
    <use href="#c0" stroke-width="24"/>
    <use href="#c0" stroke-width="30"/>
    <use href="#c0" stroke-width="36"/>
    <use href="#c0" stroke-width="42"/>
    <use href="#c0" stroke-width="48"/>
    <use href="#c0" stroke-width="54"/>
    <use href="#c0" stroke-width="60"/>
    <use href="#c0" stroke-width="66"/>
    <use href="#c0" stroke-width="72"/>
    <use href="#c0" stroke-width="78"/>
    <use href="#c0" stroke-width="84"/>
  </g>
  <use href="#b0" fill="url(#w0)"/>
  <use href="#b0" fill="url(#h0)"/>
  <g clip-path="url(#k0)">
    <g fill="none" stroke="#ffffff" stroke-opacity="0.0401" stroke-linejoin="round">
      <use href="#c0" stroke-width="9.6"/>
      <use href="#c0" stroke-width="19.2"/>
      <use href="#c0" stroke-width="28.8"/>
      <use href="#c0" stroke-width="38.4"/>
      <use href="#c0" stroke-width="48"/>
      <use href="#c0" stroke-width="57.6"/>
      <use href="#c0" stroke-width="67.2"/>
      <use href="#c0" stroke-width="76.8"/>
      <use href="#c0" stroke-width="86.4"/>
      <use href="#c0" stroke-width="96"/>
    </g>
    <g fill="none" stroke="#ffffff" stroke-opacity="0.0195" stroke-linejoin="round" transform="translate(0 70)">
      <use href="#c0" stroke-width="92"/>
      <use href="#c0" stroke-width="82.4"/>
      <use href="#c0" stroke-width="72.8"/>
      <use href="#c0" stroke-width="63.2"/>
      <use href="#c0" stroke-width="53.6"/>
      <use href="#c0" stroke-width="44"/>
      <use href="#c0" stroke-width="34.4"/>
      <use href="#c0" stroke-width="24.8"/>
      <use href="#c0" stroke-width="15.2"/>
      <use href="#c0" stroke-width="5.6"/>
    </g>
  </g>
  <use href="#c0" fill="none" stroke="#ffffff" stroke-opacity="0.72" stroke-width="3.5"/>
  <g fill="none" stroke="#0a4a62" stroke-opacity="0.0194" stroke-linejoin="round" transform="translate(0 -10)">
    <use href="#c1" stroke-width="6"/>
    <use href="#c1" stroke-width="12"/>
    <use href="#c1" stroke-width="18"/>
    <use href="#c1" stroke-width="24"/>
    <use href="#c1" stroke-width="30"/>
    <use href="#c1" stroke-width="36"/>
    <use href="#c1" stroke-width="42"/>
    <use href="#c1" stroke-width="48"/>
    <use href="#c1" stroke-width="54"/>
    <use href="#c1" stroke-width="60"/>
    <use href="#c1" stroke-width="66"/>
    <use href="#c1" stroke-width="72"/>
    <use href="#c1" stroke-width="78"/>
    <use href="#c1" stroke-width="84"/>
  </g>
  <use href="#b1" fill="url(#w1)"/>
  <use href="#b1" fill="url(#h1)"/>
  <g clip-path="url(#k1)">
    <g fill="none" stroke="#ffffff" stroke-opacity="0.0401" stroke-linejoin="round">
      <use href="#c1" stroke-width="9.6"/>
      <use href="#c1" stroke-width="19.2"/>
      <use href="#c1" stroke-width="28.8"/>
      <use href="#c1" stroke-width="38.4"/>
      <use href="#c1" stroke-width="48"/>
      <use href="#c1" stroke-width="57.6"/>
      <use href="#c1" stroke-width="67.2"/>
      <use href="#c1" stroke-width="76.8"/>
      <use href="#c1" stroke-width="86.4"/>
      <use href="#c1" stroke-width="96"/>
    </g>
    <g fill="none" stroke="#ffffff" stroke-opacity="0.0195" stroke-linejoin="round" transform="translate(0 70)">
      <use href="#c1" stroke-width="92"/>
      <use href="#c1" stroke-width="82.4"/>
      <use href="#c1" stroke-width="72.8"/>
      <use href="#c1" stroke-width="63.2"/>
      <use href="#c1" stroke-width="53.6"/>
      <use href="#c1" stroke-width="44"/>
      <use href="#c1" stroke-width="34.4"/>
      <use href="#c1" stroke-width="24.8"/>
      <use href="#c1" stroke-width="15.2"/>
      <use href="#c1" stroke-width="5.6"/>
    </g>
  </g>
  <use href="#c1" fill="none" stroke="#ffffff" stroke-opacity="0.72" stroke-width="3.5"/>
  <g fill="none" stroke="#0a4a62" stroke-opacity="0.0194" stroke-linejoin="round" transform="translate(0 -10)">
    <use href="#c2" stroke-width="6"/>
    <use href="#c2" stroke-width="12"/>
    <use href="#c2" stroke-width="18"/>
    <use href="#c2" stroke-width="24"/>
    <use href="#c2" stroke-width="30"/>
    <use href="#c2" stroke-width="36"/>
    <use href="#c2" stroke-width="42"/>
    <use href="#c2" stroke-width="48"/>
    <use href="#c2" stroke-width="54"/>
    <use href="#c2" stroke-width="60"/>
    <use href="#c2" stroke-width="66"/>
    <use href="#c2" stroke-width="72"/>
    <use href="#c2" stroke-width="78"/>
    <use href="#c2" stroke-width="84"/>
  </g>
  <use href="#b2" fill="url(#w2)"/>
  <use href="#b2" fill="url(#h2)"/>
  <g clip-path="url(#k2)">
    <g fill="none" stroke="#ffffff" stroke-opacity="0.0401" stroke-linejoin="round">
      <use href="#c2" stroke-width="9.6"/>
      <use href="#c2" stroke-width="19.2"/>
      <use href="#c2" stroke-width="28.8"/>
      <use href="#c2" stroke-width="38.4"/>
      <use href="#c2" stroke-width="48"/>
      <use href="#c2" stroke-width="57.6"/>
      <use href="#c2" stroke-width="67.2"/>
      <use href="#c2" stroke-width="76.8"/>
      <use href="#c2" stroke-width="86.4"/>
      <use href="#c2" stroke-width="96"/>
    </g>
    <g fill="none" stroke="#ffffff" stroke-opacity="0.0195" stroke-linejoin="round" transform="translate(0 70)">
      <use href="#c2" stroke-width="92"/>
      <use href="#c2" stroke-width="82.4"/>
      <use href="#c2" stroke-width="72.8"/>
      <use href="#c2" stroke-width="63.2"/>
      <use href="#c2" stroke-width="53.6"/>
      <use href="#c2" stroke-width="44"/>
      <use href="#c2" stroke-width="34.4"/>
      <use href="#c2" stroke-width="24.8"/>
      <use href="#c2" stroke-width="15.2"/>
      <use href="#c2" stroke-width="5.6"/>
    </g>
  </g>
  <use href="#c2" fill="none" stroke="#ffffff" stroke-opacity="0.72" stroke-width="3.5"/>
  <g fill="none" stroke="#0a4a62" stroke-opacity="0.0194" stroke-linejoin="round" transform="translate(0 -10)">
    <use href="#c3" stroke-width="6"/>
    <use href="#c3" stroke-width="12"/>
    <use href="#c3" stroke-width="18"/>
    <use href="#c3" stroke-width="24"/>
    <use href="#c3" stroke-width="30"/>
    <use href="#c3" stroke-width="36"/>
    <use href="#c3" stroke-width="42"/>
    <use href="#c3" stroke-width="48"/>
    <use href="#c3" stroke-width="54"/>
    <use href="#c3" stroke-width="60"/>
    <use href="#c3" stroke-width="66"/>
    <use href="#c3" stroke-width="72"/>
    <use href="#c3" stroke-width="78"/>
    <use href="#c3" stroke-width="84"/>
  </g>
  <use href="#b3" fill="url(#w3)"/>
  <use href="#b3" fill="url(#h3)"/>
  <g clip-path="url(#k3)">
    <g fill="none" stroke="#ffffff" stroke-opacity="0.0401" stroke-linejoin="round">
      <use href="#c3" stroke-width="9.6"/>
      <use href="#c3" stroke-width="19.2"/>
      <use href="#c3" stroke-width="28.8"/>
      <use href="#c3" stroke-width="38.4"/>
      <use href="#c3" stroke-width="48"/>
      <use href="#c3" stroke-width="57.6"/>
      <use href="#c3" stroke-width="67.2"/>
      <use href="#c3" stroke-width="76.8"/>
      <use href="#c3" stroke-width="86.4"/>
      <use href="#c3" stroke-width="96"/>
    </g>
    <g fill="none" stroke="#ffffff" stroke-opacity="0.0195" stroke-linejoin="round" transform="translate(0 70)">
      <use href="#c3" stroke-width="92"/>
      <use href="#c3" stroke-width="82.4"/>
      <use href="#c3" stroke-width="72.8"/>
      <use href="#c3" stroke-width="63.2"/>
      <use href="#c3" stroke-width="53.6"/>
      <use href="#c3" stroke-width="44"/>
      <use href="#c3" stroke-width="34.4"/>
      <use href="#c3" stroke-width="24.8"/>
      <use href="#c3" stroke-width="15.2"/>
      <use href="#c3" stroke-width="5.6"/>
    </g>
  </g>
  <use href="#c3" fill="none" stroke="#ffffff" stroke-opacity="0.72" stroke-width="3.5"/>
  <g fill="none" stroke="#0a4a62" stroke-opacity="0.0194" stroke-linejoin="round" transform="translate(0 -10)">
    <use href="#c4" stroke-width="6"/>
    <use href="#c4" stroke-width="12"/>
    <use href="#c4" stroke-width="18"/>
    <use href="#c4" stroke-width="24"/>
    <use href="#c4" stroke-width="30"/>
    <use href="#c4" stroke-width="36"/>
    <use href="#c4" stroke-width="42"/>
    <use href="#c4" stroke-width="48"/>
    <use href="#c4" stroke-width="54"/>
    <use href="#c4" stroke-width="60"/>
    <use href="#c4" stroke-width="66"/>
    <use href="#c4" stroke-width="72"/>
    <use href="#c4" stroke-width="78"/>
    <use href="#c4" stroke-width="84"/>
  </g>
  <use href="#b4" fill="url(#w4)"/>
  <use href="#b4" fill="url(#h4)"/>
  <g clip-path="url(#k4)">
    <g fill="none" stroke="#ffffff" stroke-opacity="0.0401" stroke-linejoin="round">
      <use href="#c4" stroke-width="9.6"/>
      <use href="#c4" stroke-width="19.2"/>
      <use href="#c4" stroke-width="28.8"/>
      <use href="#c4" stroke-width="38.4"/>
      <use href="#c4" stroke-width="48"/>
      <use href="#c4" stroke-width="57.6"/>
      <use href="#c4" stroke-width="67.2"/>
      <use href="#c4" stroke-width="76.8"/>
      <use href="#c4" stroke-width="86.4"/>
      <use href="#c4" stroke-width="96"/>
    </g>
    <g fill="none" stroke="#ffffff" stroke-opacity="0.0195" stroke-linejoin="round" transform="translate(0 70)">
      <use href="#c4" stroke-width="92"/>
      <use href="#c4" stroke-width="82.4"/>
      <use href="#c4" stroke-width="72.8"/>
      <use href="#c4" stroke-width="63.2"/>
      <use href="#c4" stroke-width="53.6"/>
      <use href="#c4" stroke-width="44"/>
      <use href="#c4" stroke-width="34.4"/>
      <use href="#c4" stroke-width="24.8"/>
      <use href="#c4" stroke-width="15.2"/>
      <use href="#c4" stroke-width="5.6"/>
    </g>
  </g>
  <use href="#c4" fill="none" stroke="#ffffff" stroke-opacity="0.72" stroke-width="3.5"/>
  <g fill="none" stroke="#0a4a62" stroke-opacity="0.0194" stroke-linejoin="round" transform="translate(0 -10)">
    <use href="#c5" stroke-width="6"/>
    <use href="#c5" stroke-width="12"/>
    <use href="#c5" stroke-width="18"/>
    <use href="#c5" stroke-width="24"/>
    <use href="#c5" stroke-width="30"/>
    <use href="#c5" stroke-width="36"/>
    <use href="#c5" stroke-width="42"/>
    <use href="#c5" stroke-width="48"/>
    <use href="#c5" stroke-width="54"/>
    <use href="#c5" stroke-width="60"/>
    <use href="#c5" stroke-width="66"/>
    <use href="#c5" stroke-width="72"/>
    <use href="#c5" stroke-width="78"/>
    <use href="#c5" stroke-width="84"/>
  </g>
  <use href="#b5" fill="url(#w5)"/>
  <use href="#b5" fill="url(#h5)"/>
  <g clip-path="url(#k5)">
    <g fill="none" stroke="#ffffff" stroke-opacity="0.0401" stroke-linejoin="round">
      <use href="#c5" stroke-width="9.6"/>
      <use href="#c5" stroke-width="19.2"/>
      <use href="#c5" stroke-width="28.8"/>
      <use href="#c5" stroke-width="38.4"/>
      <use href="#c5" stroke-width="48"/>
      <use href="#c5" stroke-width="57.6"/>
      <use href="#c5" stroke-width="67.2"/>
      <use href="#c5" stroke-width="76.8"/>
      <use href="#c5" stroke-width="86.4"/>
      <use href="#c5" stroke-width="96"/>
    </g>
    <g fill="none" stroke="#ffffff" stroke-opacity="0.0195" stroke-linejoin="round" transform="translate(0 70)">
      <use href="#c5" stroke-width="92"/>
      <use href="#c5" stroke-width="82.4"/>
      <use href="#c5" stroke-width="72.8"/>
      <use href="#c5" stroke-width="63.2"/>
      <use href="#c5" stroke-width="53.6"/>
      <use href="#c5" stroke-width="44"/>
      <use href="#c5" stroke-width="34.4"/>
      <use href="#c5" stroke-width="24.8"/>
      <use href="#c5" stroke-width="15.2"/>
      <use href="#c5" stroke-width="5.6"/>
    </g>
  </g>
  <use href="#c5" fill="none" stroke="#ffffff" stroke-opacity="0.72" stroke-width="3.5"/>
  <g fill="none" stroke="#0a4a62" stroke-opacity="0.0194" stroke-linejoin="round" transform="translate(0 -10)">
    <use href="#c6" stroke-width="6"/>
    <use href="#c6" stroke-width="12"/>
    <use href="#c6" stroke-width="18"/>
    <use href="#c6" stroke-width="24"/>
    <use href="#c6" stroke-width="30"/>
    <use href="#c6" stroke-width="36"/>
    <use href="#c6" stroke-width="42"/>
    <use href="#c6" stroke-width="48"/>
    <use href="#c6" stroke-width="54"/>
    <use href="#c6" stroke-width="60"/>
    <use href="#c6" stroke-width="66"/>
    <use href="#c6" stroke-width="72"/>
    <use href="#c6" stroke-width="78"/>
    <use href="#c6" stroke-width="84"/>
  </g>
  <use href="#b6" fill="url(#w6)"/>
  <use href="#b6" fill="url(#h6)"/>
  <g clip-path="url(#k6)">
    <g fill="none" stroke="#ffffff" stroke-opacity="0.0401" stroke-linejoin="round">
      <use href="#c6" stroke-width="9.6"/>
      <use href="#c6" stroke-width="19.2"/>
      <use href="#c6" stroke-width="28.8"/>
      <use href="#c6" stroke-width="38.4"/>
      <use href="#c6" stroke-width="48"/>
      <use href="#c6" stroke-width="57.6"/>
      <use href="#c6" stroke-width="67.2"/>
      <use href="#c6" stroke-width="76.8"/>
      <use href="#c6" stroke-width="86.4"/>
      <use href="#c6" stroke-width="96"/>
    </g>
    <g fill="none" stroke="#ffffff" stroke-opacity="0.0195" stroke-linejoin="round" transform="translate(0 70)">
      <use href="#c6" stroke-width="92"/>
      <use href="#c6" stroke-width="82.4"/>
      <use href="#c6" stroke-width="72.8"/>
      <use href="#c6" stroke-width="63.2"/>
      <use href="#c6" stroke-width="53.6"/>
      <use href="#c6" stroke-width="44"/>
      <use href="#c6" stroke-width="34.4"/>
      <use href="#c6" stroke-width="24.8"/>
      <use href="#c6" stroke-width="15.2"/>
      <use href="#c6" stroke-width="5.6"/>
    </g>
  </g>
  <use href="#c6" fill="none" stroke="#ffffff" stroke-opacity="0.72" stroke-width="3.5"/>
</svg>
